<svg width="278" height="99" viewBox="0 0 278 99" fill="none" xmlns="http://www.w3.org/2000/svg">
<path d="M209 86.5C192.2 72.1 195.622 42 209 25.5C219 13.1667 239 -5 259.5 9.5M209 86.5C230 104.5 255.917 88 265.5 76.5C275.083 65 280 33 259.5 9.5M209 86.5L259.5 9.5" stroke="#BD97A8" stroke-width="8" stroke-linecap="round" stroke-linejoin="round"/>
<path d="M96.5 23L115 72.5" stroke="#BD97A8" stroke-width="8" stroke-linecap="round" stroke-linejoin="round"/>
<path d="M47 41.5V65M47 76.5H43.5M52 6.5L4 91.5H88L52 6.5Z" stroke="#BD97A8" stroke-width="8" stroke-linecap="round" stroke-linejoin="round"/>
<path d="M147.5 11L142 65.5M191.5 16L165 68.5M160 87.5L159 83.5" stroke="#BD97A8" stroke-width="8" stroke-linecap="round" stroke-linejoin="round"/>
<path d="M142 87.5V80.5" stroke="#BD97A8" stroke-width="8" stroke-linecap="round" stroke-linejoin="round"/>
<path d="M125 83L123 88" stroke="#BD97A8" stroke-width="8" stroke-linecap="round" stroke-linejoin="round"/>
</svg>
